<?xml version="1.0" encoding="UTF-8" standalone="no"?>
<!-- Created with Inkscape (http://www.inkscape.org/) -->

<svg
   xmlns:dc="http://purl.org/dc/elements/1.1/"
   xmlns:cc="http://creativecommons.org/ns#"
   xmlns:rdf="http://www.w3.org/1999/02/22-rdf-syntax-ns#"
   xmlns:svg="http://www.w3.org/2000/svg"
   xmlns="http://www.w3.org/2000/svg"
   xmlns:xlink="http://www.w3.org/1999/xlink"
   xmlns:sodipodi="http://sodipodi.sourceforge.net/DTD/sodipodi-0.dtd"
   xmlns:inkscape="http://www.inkscape.org/namespaces/inkscape"
   id="svg2"
   version="1.1"
   inkscape:version="0.47 r22583"
   width="275"
   height="155"
   sodipodi:docname="Logo Monster (ja).svg">
  <metadata
     id="metadata8">
    <rdf:RDF>
      <cc:Work
         rdf:about="">
        <dc:format>image/svg+xml</dc:format>
        <dc:type
           rdf:resource="http://purl.org/dc/dcmitype/StillImage" />
        <dc:title />
      </cc:Work>
    </rdf:RDF>
  </metadata>
  <defs
     id="defs6">
    <linearGradient
       id="linearGradient5117">
      <stop
         style="stop-color:#550000;stop-opacity:1;"
         offset="0"
         id="stop5119" />
      <stop
         id="stop5141"
         offset="0.1"
         style="stop-color:#ff0000;stop-opacity:1;" />
      <stop
         id="stop5137"
         offset="0.2"
         style="stop-color:#aa0000;stop-opacity:1;" />
      <stop
         style="stop-color:#ff0000;stop-opacity:1;"
         offset="0.30000001"
         id="stop5139" />
      <stop
         id="stop5135"
         offset="0.40000001"
         style="stop-color:#560000;stop-opacity:1;" />
      <stop
         id="stop5133"
         offset="0.5"
         style="stop-color:#ff0000;stop-opacity:1;" />
      <stop
         id="stop5131"
         offset="0.60000002"
         style="stop-color:#aa0000;stop-opacity:1;" />
      <stop
         id="stop5129"
         offset="0.69999999"
         style="stop-color:#ff0000;stop-opacity:1;" />
      <stop
         id="stop5127"
         offset="0.80000001"
         style="stop-color:#550000;stop-opacity:1;" />
      <stop
         id="stop5125"
         offset="0.89999998"
         style="stop-color:#ff0000;stop-opacity:1;" />
      <stop
         style="stop-color:#aa0000;stop-opacity:1;"
         offset="1"
         id="stop5121" />
    </linearGradient>
    <inkscape:perspective
       sodipodi:type="inkscape:persp3d"
       inkscape:vp_x="0 : 0.5 : 1"
       inkscape:vp_y="0 : 1000 : 0"
       inkscape:vp_z="1 : 0.5 : 1"
       inkscape:persp3d-origin="0.5 : 0.33333333 : 1"
       id="perspective10" />
    <radialGradient
       inkscape:collect="always"
       xlink:href="#linearGradient5117"
       id="radialGradient5123"
       cx="205.55084"
       cy="122.5537"
       fx="205.55084"
       fy="122.5537"
       r="135"
       gradientTransform="matrix(0.19977166,-0.74555777,1.4497607,0.38846229,-15.685939,202.27179)"
       gradientUnits="userSpaceOnUse" />
  </defs>
  <sodipodi:namedview
     pagecolor="#ffffff"
     bordercolor="#666666"
     borderopacity="1"
     objecttolerance="10"
     gridtolerance="10"
     guidetolerance="10"
     inkscape:pageopacity="0"
     inkscape:pageshadow="2"
     inkscape:window-width="640"
     inkscape:window-height="480"
     id="namedview4"
     showgrid="false"
     inkscape:zoom="2.7764705"
     inkscape:cx="135.69863"
     inkscape:cy="100.25581"
     inkscape:current-layer="svg2" />
  <path
     style="fill:#000000;fill-opacity:1;stroke:#000000;stroke-width:1;stroke-linecap:butt;stroke-linejoin:miter;stroke-miterlimit:4;stroke-opacity:1;stroke-dasharray:none"
     d="m 169.5,5 c -0.76944,0 -0.77474,0.519207 -0.5,1 l 4,7 0,17 -11,0 0,17 c 0,1.458281 1.23885,1.522305 2,0 l 4,-8 5,0 0,103 5.5,9 5.5,-9 0,-103 5,0 4,8 c 0.70431,1.408615 2,1.454033 2,0 l 0,-17 -11,0 0,-17 4,-7 c 0.26591,-0.465341 0.16876,-1 -0.5,-1 l -18,0 z m -80,45 C 79.232189,50 70,65.546747 70,84.5 70,103.45325 79.232189,120 89.5,120 99.76781,120 109,103.45325 109,84.5 109,65.546747 99.76781,50 89.5,50 z m -65,2 4.5,8 0,49 -4.5,8 15,0 -4.5,-8 0,-36.5 11.5,30 11.5,-30 0,36.5 -4.5,8 19,0 L 68,109 68,60 72.5,52 59,52 49,77.5 39,52 24.5,52 z m 82,0 4.5,8 0,49 -4.5,8 15,0 -4.5,-8 0,-36.5 24,52 0,-64.5 4.5,-8 -15,0 4.5,8 0,26.03125 L 118.5,52 l -12,0 z m 50.5,0 c -6.54238,0 -12.89722,6.615706 -13,17 -0.045,4.548576 1.87064,11.870639 4.5,14.5 l 10,10 c 2.57334,2.57334 5,6.06489 5,9.5 0,3.85334 -3.31002,8 -6.5,8 -1.54825,0 -2.63654,-0.50444 -3.5,-2 -1.41441,-2.44982 -1.98546,-5.48546 -5.5,-9 l -5,14 c 3.40827,1.96777 9.6005,4.96309 16,5 7.30982,0.0422 13,-7.71364 13,-18.0625 0,-6.49561 -1.07559,-13.013093 -6.5,-18.4375 l -8,-8 c -2.38529,-2.385294 -3.53125,-4.540598 -3.53125,-9.15625 0,-2.782267 2.40448,-6.28125 4.84375,-6.28125 0.61213,0 1.57264,0.329014 2.375,1.71875 1.76811,3.062448 3.49864,5.904894 5.8125,8.21875 l 4.5,-13 c -2.58367,-1.003424 -7.33565,-4 -14.5,-4 z m 27.5,0 4.5,8 0,49 -4.5,8 30,0 0,-18.5 -6,10.5 -9.5,0 0,-22 6,0 5,8 0,-24 -5,8 -6,0 0,-19 9.5,0 6,10.5 0,-18.5 -30,0 z m 31.5,0 4.5,8 0,49 -4.5,8 19,0 -4.5,-8 0,-20 2,0 7.5,24.5 c 0.60846,1.98765 1.21566,2.74691 1.96875,3.5 l 13.15625,0 c -2.85415,-2.85415 -4.35339,-4.68517 -5.125,-7 l -8,-24 c 2.25194,-1.30016 7,-3.870133 7,-13 l 0,-6 c 0,-8.64315 -8.73909,-15 -15,-15 l -18,0 z M 89.5,59 c 4.288288,0 8,11.505276 8,25.5 0,13.99472 -3.711712,26.5 -8,26.5 -4.288288,0 -8,-12.50528 -8,-26.5 0,-13.994724 3.711712,-25.5 8,-25.5 z m 141,1 2.5,0 c 2.4942,0 5,3.466058 5,7 l 0,6 c 0,3.532221 -2.5694,7 -5,7 l -2.5,0 0,-20 z m -141,13.5 -6.5,11 6.5,11 6.5,-11 -6.5,-11 z M 9.5,76 4,85 9.5,94 26,85 9.5,76 z m 258,0 -16.5,9 16.5,9 5.5,-9 -5.5,-9 z"
     id="path3622" />
  <path
     style="fill:url(#radialGradient5123);fill-opacity:1;stroke:#000000;stroke-width:1;stroke-linecap:butt;stroke-linejoin:miter;stroke-miterlimit:4;stroke-opacity:1;stroke-dasharray:none"
     d="m 168.5,4 c -0.76944,0 -0.77474,0.519207 -0.5,1 l 4,7 0,17 -11,0 0,17 c 0,1.458281 1.23885,1.522305 2,0 l 4,-8 5,0 0,103 5.5,9 5.5,-9 0,-103 5,0 4,8 c 0.70431,1.408615 2,1.454033 2,0 l 0,-17 -11,0 0,-17 4,-7 c 0.26591,-0.465341 0.16876,-1 -0.5,-1 l -18,0 z m -80,45 C 78.232189,49 69,64.546747 69,83.5 69,102.45325 78.232189,119 88.5,119 98.76781,119 108,102.45325 108,83.5 108,64.546747 98.76781,49 88.5,49 z m -65,2 4.5,8 0,49 -4.5,8 15,0 -4.5,-8 0,-36.5 11.5,30 11.5,-30 0,36.5 -4.5,8 19,0 L 67,108 67,59 71.5,51 58,51 48,76.5 38,51 23.5,51 z m 82,0 4.5,8 0,49 -4.5,8 15,0 -4.5,-8 0,-36.5 24,52 0,-64.5 4.5,-8 -15,0 4.5,8 0,26.03125 L 117.5,51 l -12,0 z m 50.5,0 c -6.54238,0 -12.89722,6.615706 -13,17 -0.045,4.548576 1.87064,11.870639 4.5,14.5 l 10,10 c 2.57334,2.57334 5,6.06489 5,9.5 0,3.85334 -3.31002,8 -6.5,8 -1.54825,0 -2.63654,-0.50444 -3.5,-2 -1.41441,-2.44982 -1.98546,-5.48546 -5.5,-9 l -5,14 c 3.40827,1.96777 9.6005,4.96309 16,5 7.30982,0.0422 13,-7.71364 13,-18.0625 0,-6.49561 -1.07559,-13.013093 -6.5,-18.4375 l -8,-8 c -2.38529,-2.385294 -3.53125,-4.540598 -3.53125,-9.15625 0,-2.782267 2.40448,-6.28125 4.84375,-6.28125 0.61213,0 1.57264,0.329014 2.375,1.71875 1.76811,3.062448 3.49864,5.904894 5.8125,8.21875 l 4.5,-13 c -2.58367,-1.003424 -7.33565,-4 -14.5,-4 z m 27.5,0 4.5,8 0,49 -4.5,8 30,0 0,-18.5 -6,10.5 -9.5,0 0,-22 6,0 5,8 0,-24 -5,8 -6,0 0,-19 9.5,0 6,10.5 0,-18.5 -30,0 z m 31.5,0 4.5,8 0,49 -4.5,8 19,0 -4.5,-8 0,-20 2,0 7.5,24.5 c 0.60846,1.98765 1.21566,2.74691 1.96875,3.5 l 13.15625,0 c -2.85415,-2.85415 -4.35339,-4.68517 -5.125,-7 l -8,-24 c 2.25194,-1.30016 7,-3.870133 7,-13 l 0,-6 c 0,-8.64315 -8.73909,-15 -15,-15 l -18,0 z M 88.5,58 c 4.288288,0 8,11.505276 8,25.5 0,13.99472 -3.711712,26.5 -8,26.5 -4.288288,0 -8,-12.50528 -8,-26.5 0,-13.994724 3.711712,-25.5 8,-25.5 z m 141,1 2.5,0 c 2.4942,0 5,3.466058 5,7 l 0,6 c 0,3.532221 -2.5694,7 -5,7 l -2.5,0 0,-20 z m -141,13.5 -6.5,11 6.5,11 6.5,-11 -6.5,-11 z M 8.5,75 3,84 8.5,93 25,84 8.5,75 z m 258,0 -16.5,9 16.5,9 5.5,-9 -5.5,-9 z"
     id="path2826" />
</svg>
